<?xml version="1.0" standalone="no"?>
<!DOCTYPE svg PUBLIC "-//W3C//DTD SVG 20010904//EN"
 "http://www.w3.org/TR/2001/REC-SVG-20010904/DTD/svg10.dtd">
<svg version="1.0" xmlns="http://www.w3.org/2000/svg"
 width="1024.000000pt" height="1024.000000pt" viewBox="0 0 1024.000000 1024.000000"
 preserveAspectRatio="xMidYMid meet">
<metadata>
Created by potrace 1.16, written by Peter Selinger 2001-2019
</metadata>
<g transform="translate(0.000000,1024.000000) scale(0.100000,-0.100000)"
fill="#000000" stroke="none">
<path d="M4720 9830 c-1135 -105 -2145 -575 -2940 -1370 -765 -765 -1219
-1706 -1357 -2810 -26 -209 -26 -851 0 -1060 72 -575 212 -1052 451 -1536 109
-222 177 -341 293 -519 805 -1229 2121 -2011 3577 -2125 166 -13 586 -13 752
0 787 62 1542 321 2209 757 1227 804 2002 2105 2125 3568 5 66 10 239 10 385
0 284 -9 418 -41 655 -93 680 -342 1343 -726 1930 -774 1182 -1995 1937 -3413
2111 -156 19 -782 28 -940 14z m639 -250 c650 -38 1225 -195 1806 -494 1029
-529 1819 -1449 2190 -2551 374 -1112 291 -2336 -231 -3390 -612 -1236 -1766
-2127 -3109 -2400 -1101 -224 -2231 -30 -3192 547 -1071 644 -1830 1715 -2078
2933 -196 963 -75 1943 350 2821 312 648 761 1196 1335 1634 834 635 1890 960
2929 900z"/>
<path d="M6603 7190 c-416 -30 -424 -32 -464 -96 -22 -37 -25 -98 -5 -135 7
-15 58 -81 111 -148 55 -68 94 -126 89 -130 -5 -4 -202 -164 -437 -356 l-428
-347 -505 126 c-277 69 -510 126 -516 126 -7 0 -366 -258 -798 -573 -748 -546
-786 -576 -804 -619 -25 -60 -16 -110 29 -155 28 -28 40 -33 79 -33 26 0 60 7
77 15 16 9 353 252 748 540 l719 525 507 -125 c279 -69 515 -125 524 -125 16
0 1524 1221 1599 1294 86 84 25 233 -100 241 -24 2 -215 -9 -425 -25z"/>
<path d="M6471 6130 c-42 -10 -76 -35 -115 -84 l-31 -38 -3 -1419 c-2 -1381
-2 -1420 17 -1457 38 -74 102 -112 188 -112 72 0 125 28 168 88 l30 44 0 1427
0 1427 -28 42 c-44 68 -142 103 -226 82z"/>
<path d="M4383 5444 c-47 -23 -100 -86 -113 -133 -7 -27 -10 -365 -8 -1088 l3
-1048 25 -45 c85 -151 300 -142 371 15 18 38 19 96 19 1096 l0 1055 -26 52
c-37 74 -97 112 -178 112 -35 0 -75 -7 -93 -16z"/>
<path d="M5439 5047 c-60 -22 -96 -54 -123 -109 l-26 -52 0 -850 c0 -804 1
-853 19 -891 37 -82 103 -125 191 -125 63 0 106 17 147 60 67 68 64 25 61 970
l-3 855 -28 47 c-48 82 -156 125 -238 95z"/>
<path d="M3390 4511 c-55 -17 -93 -44 -121 -89 l-29 -46 0 -605 c0 -596 0
-605 21 -649 30 -61 82 -93 163 -99 56 -5 73 -2 118 20 33 16 63 41 78 63 l25
38 3 600 c2 533 1 606 -13 643 -35 91 -154 151 -245 124z"/>
</g>
</svg>
